<?xml version="1.0" standalone="no"?>
<!DOCTYPE svg PUBLIC "-//W3C//DTD SVG 20010904//EN"
 "http://www.w3.org/TR/2001/REC-SVG-20010904/DTD/svg10.dtd">
<svg version="1.0" xmlns="http://www.w3.org/2000/svg"
 width="1584.000000pt" height="1584.000000pt" viewBox="0 0 1584.000000 1584.000000"
 preserveAspectRatio="xMidYMid meet">
<metadata>
Created by potrace 1.14, written by Peter Selinger 2001-2017
</metadata>
<g transform="translate(0.000000,1584.000000) scale(0.100000,-0.100000)"
fill="#000000" stroke="none">
<path d="M7722 15769 c-20 -24 -31 -29 -66 -29 -30 0 -48 -6 -61 -20 -10 -11
-28 -20 -40 -20 -12 0 -30 -9 -40 -20 -10 -11 -28 -20 -39 -20 -29 0 -296
-267 -296 -296 0 -11 -18 -38 -40 -59 -22 -21 -40 -48 -40 -60 0 -25 -1077
-1105 -1103 -1105 -10 0 -17 -8 -17 -18 0 -24 -41 -62 -66 -62 -20 0 -754
-726 -754 -746 0 -13 -42 -54 -56 -54 -5 0 -54 -45 -109 -100 -61 -62 -107
-100 -120 -100 -27 0 -175 -149 -175 -176 0 -25 -40 -64 -66 -64 -20 0 -2134
-2106 -2134 -2126 0 -13 -42 -54 -56 -54 -5 0 -525 -516 -1157 -1148 -792
-792 -1147 -1154 -1147 -1168 0 -11 -9 -29 -20 -39 -11 -10 -20 -28 -20 -40 0
-12 -9 -30 -20 -40 -11 -10 -20 -28 -20 -41 0 -12 -13 -33 -30 -47 l-30 -26 0
-236 c0 -130 4 -234 8 -231 17 10 52 -52 52 -92 0 -26 7 -45 20 -57 11 -10 20
-28 20 -40 0 -11 18 -38 40 -60 22 -21 40 -48 40 -60 0 -27 707 -735 735 -735
24 0 105 -78 105 -102 0 -11 7 -18 18 -18 19 0 95 -74 105 -102 4 -10 12 -18
19 -18 7 0 180 -166 383 -370 203 -204 375 -370 381 -370 13 0 54 -42 54 -56
0 -5 27 -36 60 -69 33 -33 60 -68 60 -78 0 -10 9 -27 20 -39 11 -12 20 -31 20
-43 0 -12 9 -30 20 -40 11 -10 20 -28 20 -40 0 -12 9 -30 20 -40 11 -10 20
-28 20 -40 0 -11 18 -38 40 -60 22 -21 40 -48 40 -59 0 -28 108 -136 136 -136
11 0 29 -9 39 -20 10 -11 28 -20 40 -20 12 0 30 -9 40 -20 10 -11 28 -20 40
-20 12 0 30 -9 41 -21 14 -16 28 -20 57 -17 38 4 40 1 245 -204 199 -200 206
-210 203 -244 -2 -26 3 -42 20 -60 19 -20 22 -34 20 -82 -2 -48 1 -61 18 -76
12 -11 21 -29 21 -41 0 -12 9 -30 20 -40 11 -10 20 -28 20 -40 0 -11 18 -38
40 -60 22 -21 40 -48 40 -60 0 -26 69 -95 96 -95 11 0 38 -18 59 -40 22 -22
49 -40 60 -40 12 0 30 -9 41 -21 13 -14 28 -20 54 -18 21 2 46 -4 62 -15 20
-13 53 -19 125 -22 l98 -4 580 -580 c319 -319 585 -580 591 -580 12 0 54 -42
54 -55 0 -18 54 -65 75 -65 25 0 65 -39 65 -63 0 -10 8 -17 18 -17 9 0 297
-280 657 -640 412 -412 647 -640 660 -640 24 0 105 -78 105 -102 0 -10 7 -18
17 -18 28 0 343 -320 343 -348 0 -13 8 -25 18 -29 23 -8 62 -44 62 -57 0 -21
234 -246 256 -246 12 0 29 -9 39 -20 10 -11 28 -20 40 -20 12 0 30 -9 40 -20
13 -14 31 -20 61 -20 35 0 47 -5 67 -30 l26 -30 175 0 c120 0 176 3 176 11 0
23 45 48 86 49 28 0 47 6 59 20 10 11 28 20 40 20 11 0 38 18 60 40 21 22 48
40 60 40 21 0 215 186 215 206 0 6 9 19 20 29 11 10 18 21 15 24 -11 10 569
581 590 581 21 0 995 965 995 986 0 13 42 54 56 54 5 0 351 342 769 760 l761
761 121 2 c104 2 124 5 143 22 15 13 33 18 58 16 28 -2 43 3 56 18 11 12 29
21 41 21 11 0 38 18 60 40 21 22 48 40 60 40 27 0 135 109 135 136 0 11 18 38
40 59 22 22 40 49 40 60 0 12 9 30 21 41 15 13 20 28 18 56 -2 28 3 44 20 62
19 20 22 33 20 80 -2 46 1 60 19 79 12 13 22 32 22 43 0 12 71 91 184 203
l185 185 58 -3 c49 -2 62 1 77 18 11 12 29 21 41 21 12 0 30 9 40 20 10 11 28
20 40 20 11 0 38 18 60 40 21 22 48 40 60 40 26 0 95 69 95 96 0 11 18 38 40
59 22 22 40 49 40 60 0 12 9 30 20 40 11 10 20 28 20 40 0 12 9 30 21 41 17
15 20 28 18 77 l-3 58 62 62 c34 34 62 67 62 73 0 13 43 54 56 54 5 0 59 49
119 110 67 68 117 110 130 110 13 0 177 157 480 460 303 303 467 460 480 460
21 0 275 246 275 266 0 13 43 54 56 54 19 0 244 235 244 256 0 11 18 38 40 59
22 22 40 49 40 60 0 12 9 30 20 40 11 10 20 28 20 40 0 12 9 30 20 40 16 14
20 31 20 77 0 61 20 108 46 108 11 0 14 30 14 160 0 130 -3 160 -14 160 -22 0
-46 46 -46 88 0 26 -7 45 -20 57 -11 10 -20 28 -20 40 0 12 -9 30 -20 40 -11
10 -20 28 -20 40 0 12 -9 30 -20 40 -11 10 -20 28 -20 39 0 22 -265 296 -286
296 -13 0 -54 42 -54 56 0 13 -1873 1884 -1886 1884 -13 0 -54 42 -54 56 0 5
-359 368 -798 807 -525 525 -804 797 -817 797 -13 0 -273 253 -760 740 -407
407 -745 740 -751 740 -13 0 -54 42 -54 56 0 19 -175 184 -195 184 -13 0 -305
285 -840 820 -565 565 -826 820 -841 820 -11 0 -29 9 -39 20 -10 11 -28 20
-40 20 -12 0 -30 9 -40 20 -13 14 -31 20 -61 20 -35 0 -47 5 -67 30 l-26 30
-153 -1 -153 0 -23 -30z m312 -329 c230 -79 368 -280 353 -515 -12 -192 -137
-367 -316 -442 -59 -24 -79 -27 -181 -27 -132 -1 -196 17 -289 82 -103 70
-202 228 -223 356 -27 165 73 380 227 486 48 33 129 67 190 80 59 13 171 4
239 -20z m-96 -2013 c8 -6 39 -54 69 -106 31 -53 111 -188 178 -301 67 -113
220 -374 340 -580 120 -206 288 -492 375 -635 86 -143 292 -485 457 -760 166
-275 383 -634 484 -797 869 -1406 1262 -2053 1461 -2403 96 -170 102 -181 96
-197 -7 -17 -348 -231 -878 -550 -223 -135 -454 -276 -515 -313 -137 -85 -549
-334 -930 -560 -159 -95 -401 -242 -537 -326 -367 -228 -608 -375 -649 -394
-34 -16 -37 -16 -77 4 -52 27 -481 284 -777 466 -228 140 -536 326 -1145 690
-173 104 -445 270 -605 368 -159 99 -378 233 -485 299 -279 171 -460 291 -460
306 0 25 102 201 410 707 41 66 137 228 215 360 78 132 189 319 247 415 58 96
204 339 325 540 229 381 454 751 713 1175 127 207 551 906 732 1205 25 41 132
221 238 400 616 1040 583 987 624 999 34 9 73 4 94 -12z m-1968 -96 c93 -35
169 -104 215 -195 39 -77 40 -80 40 -185 0 -96 -3 -112 -28 -163 -93 -190
-311 -292 -489 -229 -75 26 -156 80 -197 131 -49 61 -91 162 -98 234 -16 178
119 371 296 422 65 19 193 12 261 -15z m4055 14 c86 -23 149 -61 214 -130 148
-158 145 -385 -7 -547 -50 -54 -106 -87 -191 -112 -205 -61 -416 61 -491 283
-33 98 -22 198 32 306 85 168 261 247 443 200z m-5224 -1095 c142 -56 236
-163 274 -310 22 -86 14 -154 -30 -246 -45 -93 -107 -156 -196 -199 -122 -58
-240 -56 -366 9 -63 32 -147 122 -181 193 -24 52 -27 70 -27 163 0 100 2 109
34 175 95 193 310 287 492 215z m6358 1 c83 -26 141 -62 194 -121 87 -97 128
-222 108 -334 -40 -226 -234 -371 -456 -339 -145 21 -257 102 -320 233 -41 87
-52 159 -35 243 25 127 96 226 206 284 105 56 199 66 303 34z m-5422 -1251
c23 -17 51 -50 63 -75 l22 -45 -25 -53 c-16 -35 -36 -61 -59 -75 -34 -21 -34
-21 -1123 -23 -600 -2 -1109 -4 -1133 -7 -39 -4 -54 -15 -194 -152 l-152 -147
18 -77 c23 -94 17 -149 -24 -232 -100 -205 -362 -275 -550 -146 -108 74 -167
196 -157 331 18 262 222 414 455 340 43 -14 40 -16 257 186 99 92 194 176 210
186 29 18 79 19 1191 19 l1160 0 41 -30z m6695 -7 c67 -47 128 -96 253 -204
55 -47 121 -102 148 -122 47 -36 47 -36 88 -22 60 21 158 19 223 -5 235 -88
316 -406 156 -609 -28 -35 -59 -59 -107 -83 -65 -32 -73 -33 -183 -33 -106 0
-120 2 -172 28 -76 38 -130 92 -168 172 -37 77 -47 148 -30 225 6 30 12 63 13
72 2 15 -253 257 -313 297 -22 14 -113 16 -980 16 -525 0 -1041 1 -1147 3
l-192 2 -35 38 c-63 65 -65 136 -9 203 52 61 -17 58 1245 59 l1158 0 52 -37z
m-7592 -1468 c75 -71 79 -127 14 -208 -49 -60 27 -57 -1242 -57 l-1163 0 -302
-304 -302 -304 -135 -7 c-226 -10 -800 -2 -800 12 0 11 248 250 278 267 9 5
115 9 237 8 121 -1 234 1 252 5 24 6 105 79 311 279 308 300 309 300 462 323
41 6 86 13 100 15 14 2 528 3 1142 2 l1117 -1 31 -30z m8585 13 c84 -29 129
-66 407 -337 228 -222 272 -261 304 -267 21 -4 148 -4 282 0 l243 7 142 -134
c78 -74 144 -142 145 -151 4 -16 -26 -17 -487 -14 l-491 3 -307 307 -308 308
-1185 2 c-652 2 -1193 7 -1202 11 -22 11 -56 66 -68 109 -20 67 24 148 90 167
22 6 473 9 1210 8 1079 -2 1179 -4 1225 -19z m-9731 -583 c112 -29 199 -106
254 -222 23 -50 27 -70 27 -153 0 -88 -3 -101 -33 -162 -68 -138 -170 -207
-320 -216 -132 -7 -220 26 -299 111 -23 25 -53 68 -68 96 l-25 51 -139 0 -139
0 -168 -161 c-93 -89 -209 -195 -257 -235 l-88 -74 -529 0 -529 0 20 -57 c52
-147 9 -343 -104 -480 -219 -267 -631 -251 -833 32 -70 99 -96 172 -102 288
-7 147 21 251 99 367 132 197 386 271 628 181 l85 -31 587 0 586 0 184 176
c101 97 214 201 250 230 l66 54 201 0 201 0 30 44 c100 145 251 204 415 161z
m8651 -29 c61 -30 86 -50 133 -106 31 -37 62 -70 67 -72 6 -2 96 -1 200 2
l190 5 118 -110 c266 -249 363 -337 382 -348 14 -8 191 -11 615 -10 l596 2 76
30 c106 43 193 53 293 36 264 -47 448 -268 448 -540 1 -129 -35 -231 -120
-348 -109 -149 -329 -231 -512 -193 -153 32 -269 110 -351 234 -71 107 -94
190 -87 301 3 47 13 106 21 130 9 24 16 45 16 47 0 2 -242 4 -537 5 -296 0
-546 3 -555 7 -23 10 -213 179 -374 334 l-135 130 -137 -7 c-75 -4 -137 -8
-138 -9 0 0 -20 -32 -44 -69 -79 -125 -201 -185 -354 -175 -142 9 -246 82
-310 217 -28 60 -31 75 -31 161 1 117 25 185 91 259 90 100 166 133 286 128
65 -3 90 -10 153 -41z m-8398 -1274 c97 -69 96 -196 -4 -254 -30 -18 -73 -19
-720 -24 -378 -3 -855 -2 -1060 3 l-371 8 -27 25 c-37 34 -55 72 -55 115 0 65
54 139 109 148 15 3 492 4 1061 3 l1035 -1 32 -23z m10098 -15 c28 -27 47 -58
55 -85 10 -38 9 -49 -10 -88 -12 -24 -36 -54 -53 -66 l-32 -23 -1072 0 -1072
0 -28 21 c-70 52 -90 122 -54 192 33 64 53 76 144 83 45 3 531 7 1081 7 l999
2 42 -43z m666 -744 c-15 -28 -207 -214 -296 -288 l-80 -66 -145 3 c-167 3
-155 8 -265 -94 -124 -115 -278 -231 -350 -264 -133 -61 -91 -59 -1050 -59
-484 0 -891 3 -905 7 -34 10 -80 83 -80 128 0 42 35 105 73 134 25 18 48 22
190 28 89 3 489 7 889 7 l728 1 82 71 c46 39 135 119 198 178 63 59 133 120
154 136 l39 30 251 6 c216 5 257 8 291 24 26 13 74 21 140 25 55 4 110 7 123
8 19 2 21 -1 13 -15z m-13226 -13 c75 -14 152 -20 245 -20 132 0 137 -1 181
-28 24 -16 88 -69 143 -118 180 -163 240 -214 294 -251 l53 -37 864 0 864 -1
31 -30 c41 -39 70 -96 70 -138 0 -44 -50 -114 -87 -124 -16 -4 -428 -7 -918
-8 l-890 0 -66 31 c-129 61 -230 139 -417 317 l-82 80 -160 -5 -160 -5 -53 51
c-30 28 -110 108 -177 179 l-123 127 139 0 c97 0 174 -6 249 -20z m9891 -64
c59 -59 62 -54 -177 -366 -69 -91 -202 -268 -294 -395 -252 -344 -496 -670
-636 -851 -68 -88 -213 -277 -321 -420 -108 -142 -247 -325 -310 -405 -140
-182 -369 -482 -597 -784 -96 -126 -231 -304 -301 -395 -182 -237 -423 -557
-552 -733 -199 -272 -251 -327 -310 -327 -40 0 -118 77 -220 219 -50 69 -168
227 -263 351 -94 124 -229 302 -300 395 -71 94 -208 272 -305 396 -96 124
-238 308 -314 410 -400 529 -643 849 -676 889 -32 38 -823 1084 -1090 1440
-311 415 -358 488 -345 529 3 12 22 33 40 47 l34 26 53 -24 c29 -14 233 -135
453 -270 447 -273 720 -437 1030 -618 116 -67 365 -215 555 -328 190 -112 455
-270 590 -350 319 -189 418 -249 571 -344 69 -43 135 -78 145 -78 11 0 28 6
39 14 11 7 97 57 190 111 94 54 242 141 330 195 173 105 532 320 905 543 439
262 1024 610 1185 705 88 52 264 157 391 233 268 160 384 219 432 219 25 0 43
-9 68 -34z m-8427 -984 c62 -18 131 -77 190 -162 l37 -55 580 4 c319 2 610 1
647 -3 84 -9 128 -42 146 -109 14 -47 2 -90 -36 -132 -51 -58 -18 -55 -629
-55 -308 0 -594 -3 -635 -6 l-74 -7 -30 -50 c-36 -60 -123 -128 -198 -153 -81
-28 -197 -24 -270 9 -112 51 -202 169 -225 295 -28 152 71 345 211 410 89 42
178 46 286 14z m10128 3 c108 -32 215 -145 249 -263 49 -168 -38 -362 -201
-445 -51 -26 -74 -31 -151 -35 -110 -5 -165 10 -239 66 -44 33 -106 109 -117
144 -6 16 42 15 -692 16 l-629 2 -38 40 c-65 68 -62 159 6 219 l36 31 602 0
c331 0 626 3 654 6 51 7 54 9 81 58 88 155 254 216 439 161z m-9043 -1079
c112 -50 200 -134 240 -231 l15 -35 446 0 446 0 57 -52 c130 -119 464 -455
478 -481 48 -90 -26 -217 -128 -217 -22 0 -49 5 -61 11 -12 6 -122 111 -245
233 l-222 221 -393 -3 c-225 -1 -393 -7 -395 -12 -8 -23 -64 -98 -104 -138
-91 -94 -242 -133 -378 -98 -271 70 -392 364 -258 629 46 91 157 175 262 197
70 15 175 5 240 -24z m8003 -6 c195 -91 299 -319 234 -511 -113 -337 -548
-406 -731 -116 -22 34 -45 68 -52 76 -10 12 -73 13 -402 8 l-390 -6 -211 -209
c-228 -227 -257 -252 -289 -252 -76 0 -158 56 -177 121 -19 63 2 109 85 188
39 36 156 150 261 254 l192 187 451 0 c249 0 455 -1 458 -2 3 -2 21 26 39 62
46 89 93 141 164 179 126 67 255 74 368 21z m-587 -977 c0 -3 -222 -229 -492
-500 -314 -315 -502 -496 -518 -499 -14 -3 -34 -7 -46 -9 -15 -3 -31 -28 -58
-87 -39 -89 -101 -179 -153 -222 -17 -14 -56 -38 -87 -52 -175 -80 -374 -34
-488 114 -71 93 -91 156 -86 278 3 93 6 107 41 176 47 96 101 152 185 191 61
29 76 32 167 32 92 0 106 -3 168 -32 39 -19 92 -55 126 -88 32 -30 61 -55 66
-55 14 0 194 168 465 435 146 144 281 272 300 286 33 23 45 24 215 30 99 3
183 6 188 7 4 1 7 -1 7 -5z m-6729 -57 c30 -27 194 -187 364 -356 171 -168
324 -316 341 -328 l31 -22 64 61 c72 69 119 96 199 115 172 41 344 -24 439
-167 49 -73 71 -140 78 -234 6 -84 -19 -169 -74 -252 -42 -63 -77 -92 -158
-130 -55 -26 -70 -28 -180 -28 -109 0 -125 2 -177 27 -111 52 -194 155 -233
291 l-16 57 -50 0 c-48 0 -52 3 -142 84 -99 90 -652 649 -817 826 l-98 106
188 -1 188 0 53 -49z m3302 -2420 c185 -66 319 -224 347 -411 9 -61 8 -81 -10
-149 -24 -96 -56 -153 -127 -227 -90 -95 -217 -149 -349 -149 -152 0 -256 40
-352 136 -161 161 -187 379 -67 579 121 202 353 293 558 221z"/>
<path d="M7785 15183 c-102 -53 -157 -166 -134 -273 21 -97 143 -191 248 -190
67 1 161 73 201 154 23 49 26 122 6 170 -19 46 -88 113 -139 137 -52 23 -141
24 -182 2z"/>
<path d="M5726 13050 c-70 -62 -51 -171 37 -211 54 -24 84 -24 124 1 64 39 83
97 50 160 -42 82 -146 107 -211 50z"/>
<path d="M9895 13075 c-47 -17 -82 -57 -91 -103 -14 -71 55 -152 128 -152 87
0 163 90 138 165 -12 36 -71 95 -95 95 -7 0 -19 2 -27 5 -7 2 -31 -2 -53 -10z"/>
<path d="M4613 11970 c-93 -56 -81 -196 21 -235 39 -15 45 -15 84 0 78 32 113
119 73 183 -43 67 -117 89 -178 52z"/>
<path d="M11015 11979 c-17 -4 -44 -22 -60 -39 -25 -26 -30 -40 -30 -81 0 -46
3 -54 42 -90 35 -32 49 -39 84 -39 78 0 139 59 139 134 0 46 -48 102 -98 116
-42 11 -37 11 -77 -1z"/>
<path d="M2726 10353 c-35 -34 -41 -62 -23 -106 31 -73 102 -85 152 -25 35 42
34 91 -4 129 -39 39 -88 40 -125 2z"/>
<path d="M12965 10368 c-34 -19 -55 -52 -55 -89 0 -30 7 -43 36 -69 44 -38 74
-35 117 11 45 48 34 114 -23 144 -34 18 -48 18 -75 3z"/>
<path d="M3534 8656 c-19 -19 -34 -44 -34 -56 0 -37 31 -90 61 -106 39 -20 72
-9 110 33 39 45 34 84 -16 131 -45 42 -77 42 -121 -2z"/>
<path d="M784 8066 c-162 -75 -205 -301 -83 -440 135 -153 349 -117 437 73
103 221 -135 469 -354 367z"/>
<path d="M12122 8650 c-45 -44 -44 -90 2 -136 19 -19 43 -34 55 -34 52 0 101
50 101 104 0 37 -48 86 -91 92 -30 5 -40 2 -67 -26z"/>
<path d="M14835 8071 c-22 -10 -61 -41 -87 -70 -111 -124 -108 -291 9 -403 50
-48 99 -68 171 -68 146 0 276 135 276 285 0 105 -68 213 -159 256 -53 25 -156
25 -210 0z"/>
<path d="M2767 5550 c-74 -59 -40 -180 51 -180 42 0 92 46 92 85 0 38 -26 83
-60 100 -38 20 -52 19 -83 -5z"/>
<path d="M12918 5554 c-52 -28 -64 -93 -27 -145 17 -24 28 -29 60 -29 51 0 75
13 95 51 20 40 11 82 -28 114 -33 28 -61 31 -100 9z"/>
<path d="M3844 4484 c-66 -22 -106 -94 -90 -159 10 -40 67 -95 107 -104 47
-11 85 5 127 53 49 56 41 126 -20 184 -36 33 -77 42 -124 26z"/>
<path d="M11845 4493 c-56 -15 -105 -78 -105 -134 0 -42 40 -103 80 -124 65
-33 134 -9 177 62 29 48 29 81 0 123 -35 53 -104 85 -152 73z"/>
<path d="M9853 2901 c-63 -39 -86 -135 -46 -189 50 -67 121 -88 189 -56 132
63 87 248 -63 261 -36 3 -56 -1 -80 -16z"/>
<path d="M5765 2906 c-47 -21 -67 -51 -73 -104 -5 -59 13 -100 63 -138 69 -52
157 -25 196 60 23 51 23 59 3 103 -34 70 -125 109 -189 79z"/>
<path d="M7825 1051 c-137 -34 -211 -175 -156 -297 32 -71 144 -144 220 -144
95 0 200 100 217 207 14 88 -68 198 -170 228 -54 16 -65 17 -111 6z"/>
</g>
</svg>
